<?xml version="1.0" encoding="UTF-8"?>
<svg width="32px" height="32px" viewBox="0 0 32 32" version="1.1" xmlns="http://www.w3.org/2000/svg" xmlns:xlink="http://www.w3.org/1999/xlink">
    <g id="最终版" stroke="none" stroke-width="1" fill="none" fill-rule="evenodd">
        <g id="dashboard_duck" transform="translate(-1866.000000, -73.000000)">
            <g id="编组-10备份" transform="translate(1763.000000, 53.000000)">
                <g id="编组-10" transform="translate(103.000000, 20.000000)">
                    <rect id="矩形" x="0" y="0" width="32" height="32"></rect>
                    <path d="M19.3482352,17.4865883 L14.3379295,21.9958635 C13.5169094,22.7347815 12.2523297,22.6682247 11.5134117,21.8472047 C11.1828872,21.4799552 11,21.0033587 11,20.5092752 L11,11.4907248 C11,10.3861553 11.8954305,9.49072481 13,9.49072481 C13.4940836,9.49072481 13.97068,9.67361204 14.3379295,10.0041365 L19.3482352,14.5134117 C20.1692553,15.2523297 20.2358121,16.5169094 19.4968941,17.3379295 C19.4499816,17.3900544 19.4003602,17.4396759 19.3482352,17.4865883 Z" id="路径" fill="#C19CA7" transform="translate(16.000000, 16.000000) rotate(90.000000) translate(-16.000000, -16.000000) "></path>
                </g>
            </g>
        </g>
    </g>
</svg>
