<?xml version="1.0" encoding="UTF-8"?>
<svg width="72px" height="72px" viewBox="0 0 72 72" version="1.1" xmlns="http://www.w3.org/2000/svg" xmlns:xlink="http://www.w3.org/1999/xlink">
    <g id="最终版" stroke="none" stroke-width="1" fill="none" fill-rule="evenodd">
        <g id="LBP" transform="translate(-1888.000000, -53.000000)" fill-rule="nonzero">
            <g id="礼物" transform="translate(1888.000000, 53.000000)">
                <g id="编组">
                    <g transform="translate(0.000000, 9.000000)">
                        <path d="M0.426315789,12.2210526 L39.0315789,25.3894737 L70.8157895,12.6947368 C70.8631579,12.6473684 70.8631579,12.6 70.8157895,12.5526316 C69.0631579,11.7947368 53.2421053,4.97368421 37.6578947,0.473684211 C36.8526316,0.236842105 36,0.236842105 35.1947368,0.426315789 C30.0315789,1.75263158 10.0421053,7.05789474 0.378947368,12.0789474 C0.378947368,12.1263158 0.378947368,12.2210526 0.426315789,12.2210526 Z" id="路径" fill="#FF6C6C"></path>
                        <path d="M39.0789474,25.6263158 L0.378947368,12.4105263 L0.378947368,12.4105263 C0.284210526,12.3631579 0.189473684,12.2684211 0.189473684,12.1736842 C0.189473684,12.0789474 0.236842105,11.9842105 0.331578947,11.9368421 C9.9,7.01052632 29.4157895,1.75263158 35.1473684,0.284210526 C36,0.0473684211 36.9,0.0947368421 37.7052632,0.331578947 C53.2894737,4.83157895 69.1105263,11.6526316 70.8631579,12.4105263 C70.9578947,12.4578947 71.0052632,12.5526316 71.0052632,12.6473684 C71.0052632,12.7421053 70.9578947,12.8368421 70.8631579,12.8842105 L39.0789474,25.6263158 Z M0.757894737,12.1263158 L39.0789474,25.2 L70.5315789,12.6 C67.8789474,11.4631579 52.6263158,4.97368421 37.6578947,0.663157895 C36.9,0.426315789 36.0947368,0.426315789 35.2894737,0.615789474 C29.5578947,2.08421053 10.3736842,7.24736842 0.757894737,12.1263158 Z" id="形状" stroke="#000000" stroke-width="0.947368421" fill="#000000"></path>
                    </g>
                    <g transform="translate(32.210526, 11.842105)">
                        <path d="M0.710526316,7.15263158 C0.710526316,7.15263158 14.3052632,-3.38618023e-15 16.5315789,0.331578947 C18.7105263,0.663157895 25.6736842,3.31578947 25.6736842,3.31578947 L4.87894737,9.04736842 L0.710526316,7.15263158 Z" id="路径" fill="#F49703"></path>
                        <path d="M4.83157895,9.23684211 L0.284210526,7.15263158 L0.615789474,6.96315789 C1.18421053,6.67894737 14.3052632,-0.189473684 16.5315789,0.0947368421 C18.7105263,0.426315789 25.4368421,2.98421053 25.7210526,3.12631579 L26.2421053,3.31578947 L4.83157895,9.23684211 Z M1.13684211,7.15263158 L4.87894737,8.85789474 L25.0578947,3.31578947 C23.4,2.7 18.2842105,0.805263158 16.4842105,0.521052632 C14.8263158,0.284210526 5.92105263,4.64210526 1.13684211,7.15263158 Z" id="形状" stroke="#000000" stroke-width="0.947368421" fill="#000000"></path>
                    </g>
                    <g transform="translate(36.473684, 30.315789)">
                        <path d="M31.8789474,0.284210526 C31.8789474,0.284210526 28.3736842,20.9368421 29.5578947,25.4842105 C29.5578947,25.4842105 29.6052632,26.0052632 29.1315789,26.2421053 C28.6578947,26.4789474 0.189473684,41.0210526 0.189473684,41.0210526 L0.805263158,12.4105263 L31.8789474,0.284210526 Z" id="路径" fill="#BA1A1A"></path>
                        <path d="M0,41.3052632 L0.615789474,12.2684211 L0.710526316,12.2210526 L32.0684211,0 L32.0210526,0.331578947 C31.9736842,0.521052632 28.5631579,20.9842105 29.7,25.4368421 C29.7,25.4842105 29.7473684,26.1 29.1789474,26.4315789 C28.7052632,26.6684211 1.37368421,40.5947368 0.236842105,41.2105263 L0,41.3052632 Z M0.994736842,12.5052632 L0.378947368,40.6894737 C3.31578947,39.1736842 28.6105263,26.2894737 29.0368421,26.0526316 C29.3684211,25.8631579 29.3684211,25.4842105 29.3684211,25.4842105 C28.2315789,21.2210526 31.1684211,3.31578947 31.5947368,0.568421053 L0.994736842,12.5052632 Z" id="形状" stroke="#000000" stroke-width="0.947368421" fill="#000000"></path>
                    </g>
                    <g transform="translate(2.842105, 31.263158)">
                        <path d="M0.615789474,0.710526316 C0.615789474,0.710526316 3.88421053,14.0210526 2.98421053,25.7684211 L33.8210526,40.0736842 L34.6263158,10.7052632 L0.615789474,0.710526316 Z" id="路径" fill="#FF4040"></path>
                        <path d="M34.0105263,40.3578947 L2.79473684,25.8631579 L2.79473684,25.7210526 C3.69473684,14.1631579 0.473684211,0.852631579 0.426315789,0.757894737 L0.331578947,0.426315789 L34.7684211,10.5631579 L34.0105263,40.3578947 Z M3.17368421,25.6263158 L33.6315789,39.7894737 L34.4368421,10.8473684 L0.852631579,0.994736842 C1.37368421,3.03157895 3.97894737,15.0157895 3.17368421,25.6263158 Z" id="形状" stroke="#000000" stroke-width="0.947368421" fill="#000000" stroke-linejoin="round"></path>
                    </g>
                    <g transform="translate(0.000000, 20.842105)">
                        <path d="M0.284210526,0.521052632 L1.70526316,10.2315789 C1.75263158,10.4210526 1.84736842,10.5631579 2.03684211,10.6578947 C5.4,11.8894737 36.0473684,23.1157895 37.9421053,23.1157895 C37.9421053,23.1157895 38.9842105,15.4894737 39.0315789,13.5473684 L0.426315789,0.378947368 C0.378947368,0.378947368 0.284210526,0.426315789 0.284210526,0.521052632 Z" id="路径" fill="#EA3939"></path>
                        <path d="M38.1315789,23.3052632 L37.9894737,23.3052632 C36.0947368,23.2578947 7.67368421,12.8842105 1.98947368,10.8 C1.75263158,10.7052632 1.56315789,10.4684211 1.51578947,10.2315789 L0.0947368421,0.521052632 C0.0947368421,0.426315789 0.0947368421,0.331578947 0.189473684,0.236842105 C0.284210526,0.189473684 0.378947368,0.142105263 0.473684211,0.189473684 L39.2210526,13.4052632 L39.2210526,13.5473684 C39.1736842,15.4894737 38.1789474,22.8315789 38.1315789,23.1157895 L38.1315789,23.3052632 Z M0.521052632,0.615789474 L1.89473684,10.2315789 C1.89473684,10.3736842 1.98947368,10.4684211 2.13157895,10.5157895 C14.4,15.0157895 35.3368421,22.5473684 37.8473684,22.9736842 C37.9894737,21.8368421 38.8421053,15.6789474 38.8894737,13.7368421 L0.521052632,0.615789474 Z" id="形状" stroke="#000000" stroke-width="0.947368421" fill="#000000" stroke-linejoin="round"></path>
                    </g>
                    <g transform="translate(12.789474, 19.894737)">
                        <path d="M0.805263158,15.4894737 C0.805263158,15.4894737 1.70526316,40.5 2.74736842,42.2526316 C3.17368421,42.9631579 6.3,44.4789474 8.1,45.1894737 C9.09473684,45.5684211 10.1842105,45.7578947 11.2263158,45.7578947 L11.6052632,45.7578947 L9.71052632,44.7631579 L9.71052632,16.4368421 C9.71052632,16.4368421 10.4210526,4.12105263 18.0947368,1.32631579 L16.8157895,0.189473684 C16.8157895,0.189473684 1.8,3.12631579 0.757894737,5.87368421 C-0.284210526,8.57368421 0.805263158,15.4894737 0.805263158,15.4894737 Z" id="路径" fill="#FFB000"></path>
                        <path d="M12.4105263,45.9473684 L11.2736842,45.9473684 C10.1842105,45.9473684 9.09473684,45.7578947 8.05263158,45.3789474 C6.34736842,44.7631579 3.07894737,43.2 2.60526316,42.3947368 C1.56315789,40.6421053 0.663157895,16.7210526 0.615789474,15.5842105 C0.568421053,15.1578947 -0.426315789,8.57368421 0.615789474,5.82631579 C1.70526316,2.98421053 16.2,0.142105263 16.8157895,0 L16.9105263,0 L18.5210526,1.42105263 L18.2368421,1.51578947 C10.7526316,4.21578947 9.94736842,16.2947368 9.94736842,16.4368421 L9.94736842,44.6210526 L12.4105263,45.9473684 Z M16.8157895,0.331578947 C11.6526316,1.32631579 1.8,3.78947368 0.994736842,5.87368421 C-0.0473684211,8.57368421 0.994736842,15.3947368 0.994736842,15.4421053 L0.994736842,15.4421053 C1.32631579,24.0631579 2.08421053,40.7368421 2.93684211,42.1105263 C3.31578947,42.7736842 6.34736842,44.2421053 8.19473684,44.9526316 C9.09473684,45.2842105 9.99473684,45.4736842 10.9421053,45.5210526 L9.61578947,44.8105263 L9.61578947,16.3894737 C9.61578947,16.2473684 10.4210526,4.21578947 17.8578947,1.18421053 L16.8157895,0.331578947 Z" id="形状" stroke="#000000" stroke-width="0.947368421" fill="#000000" stroke-linejoin="round"></path>
                    </g>
                    <g transform="translate(37.421053, 21.315789)">
                        <path d="M33.3947368,0.378947368 L1.61052632,13.0736842 L0.521052632,22.6421053 C0.521052632,22.6421053 26.4315789,12.3157895 31.5,9.80526316 C31.9736842,9.56842105 32.3526316,9.09473684 32.4,8.52631579 L33.4894737,0.473684211 C33.5368421,0.426315789 33.4894737,0.378947368 33.3947368,0.378947368 Z" id="路径" fill="#D31C1C"></path>
                        <path d="M0.331578947,22.9263158 L1.46842105,12.9315789 L1.56315789,12.8842105 L33.3473684,0.189473684 C33.4421053,0.142105263 33.5368421,0.142105263 33.6315789,0.236842105 C33.7263158,0.284210526 33.7736842,0.378947368 33.7263158,0.521052632 L32.6368421,8.57368421 C32.5421053,9.18947368 32.1631579,9.71052632 31.6421053,9.99473684 C26.6210526,12.4578947 0.9,22.7368421 0.663157895,22.8315789 L0.331578947,22.9263158 Z M1.8,13.2157895 L0.757894737,22.3578947 C3.6,21.2210526 26.7157895,11.9842105 31.4526316,9.66315789 C31.8789474,9.42631579 32.2105263,9.04736842 32.2578947,8.52631579 L33.3473684,0.615789474 L1.8,13.2157895 Z" id="形状" stroke="#000000" stroke-width="0.947368421" fill="#000000" stroke-linejoin="round"></path>
                    </g>
                    <g transform="translate(42.157895, 24.157895)">
                        <path d="M7.57894737,40.5 L7.57894737,40.5 C9.37894737,40.5 11.1789474,40.0263158 12.6947368,39.0789474 L14.7789474,37.8473684 C15.3473684,37.5157895 15.7263158,36.9473684 15.8210526,36.3315789 C16.5789474,30.6947368 20.1789474,3.41052632 17.5263158,1.32631579 C14.5421053,-0.994736842 1.13684211,2.46315789 1.13684211,2.46315789 C1.13684211,2.46315789 7.91052632,3.88421053 8.66842105,5.54210526 C9.42631579,7.2 9.52105263,39.5526316 9.52105263,39.5526316 L7.57894737,40.5 Z" id="路径" fill="#FFB000"></path>
                        <path d="M7.57894737,40.6894737 L6.77368421,40.6894737 L9.33157895,39.4578947 C9.28421053,28.2315789 9.09473684,6.86842105 8.52631579,5.63684211 C7.95789474,4.35789474 2.98421053,3.07894737 1.08947368,2.65263158 L0.331578947,2.51052632 L1.08947368,2.32105263 C1.65789474,2.17894737 14.6368421,-1.13684211 17.6684211,1.23157895 C20.3684211,3.31578947 17.1,28.7052632 16.0105263,36.4263158 C15.9157895,37.1368421 15.4894737,37.7526316 14.9210526,38.0842105 L12.8368421,39.3157895 C11.2263158,40.2157895 9.42631579,40.6894737 7.57894737,40.6894737 Z M1.94210526,2.46315789 C3.74210526,2.88947368 8.19473684,4.07368421 8.85789474,5.44736842 C9.61578947,7.10526316 9.71052632,38.2263158 9.71052632,39.5526316 L9.71052632,39.6473684 L8.47894737,40.2631579 C9.94736842,40.1210526 11.3684211,39.6947368 12.6473684,38.9368421 L14.7315789,37.7052632 C15.2526316,37.4210526 15.5842105,36.9 15.6789474,36.2842105 C17.7631579,21.1736842 19.4684211,3.03157895 17.4789474,1.42105263 C14.9684211,-0.473684211 4.83157895,1.75263158 1.94210526,2.46315789 Z" id="形状" stroke="#000000" stroke-width="0.947368421" fill="#000000" stroke-linejoin="round"></path>
                    </g>
                    <g transform="translate(19.421053, 11.842105)">
                        <path d="M0.378947368,1.75263158 C0.378947368,1.75263158 3.36315789,0.142105263 3.83684211,0.331578947 C4.26315789,0.521052632 11.7473684,5.25789474 11.7473684,5.25789474 L8.28947368,7.43684211 L0.378947368,1.75263158 Z" id="路径" fill="#FFB000"></path>
                        <path d="M8.28947368,7.67368421 L0.0473684211,1.75263158 L0.331578947,1.61052632 C1.27894737,1.13684211 3.45789474,1.86795024e-14 3.93157895,0.189473684 C4.35789474,0.378947368 11.0842105,4.64210526 11.8421053,5.11578947 L12.0789474,5.25789474 L8.28947368,7.67368421 Z M0.757894737,1.8 L8.28947368,7.2 L11.3684211,5.25789474 C8.38421053,3.36315789 4.07368421,0.615789474 3.74210526,0.521052632 C3.50526316,0.426315789 2.03684211,1.08947368 0.757894737,1.8 Z" id="形状" stroke="#000000" stroke-width="0.947368421" fill="#000000" stroke-linejoin="round"></path>
                    </g>
                    <g transform="translate(11.368421, 3.315789)">
                        <path d="M11.9842105,4.02631579 C11.9842105,4.02631579 10.0421053,6.44210526 10.7052632,9.23684211 C11.3684211,12.0315789 12.4105263,12.9315789 14.5421053,13.4526316 C16.6736842,14.0210526 19.5631579,16.1052632 19.5631579,16.1052632 L18.2842105,16.6736842 C18.2842105,16.6736842 17.3368421,15.5368421 9.94736842,16.4368421 C2.55789474,17.3368421 2.08421053,15.0631579 0.947368421,10.3736842 C-0.189473684,5.68421053 -0.521052632,0.0473684211 2.36842105,0.568421053 C5.25789474,1.04210526 11.9842105,4.02631579 11.9842105,4.02631579 Z" id="路径" fill="#E89B00"></path>
                        <path d="M18.2368421,16.9105263 L18.1421053,16.8157895 C18.1421053,16.8157895 17.0052632,15.7736842 9.99473684,16.6263158 C2.51052632,17.5263158 1.94210526,15.2052632 0.852631579,10.5157895 L0.852631579,10.4210526 C0.426315789,8.62105263 -0.805263158,2.65263158 0.9,0.852631579 C1.27894737,0.426315789 1.84736842,0.284210526 2.46315789,0.378947368 C5.35263158,0.852631579 11.8421053,3.74210526 12.1263158,3.88421053 L12.3631579,3.97894737 L12.2210526,4.16842105 C12.2210526,4.16842105 10.3736842,6.53684211 10.9421053,9.23684211 C11.5578947,12.0315789 12.6947368,12.7894737 14.6368421,13.3105263 C16.7684211,13.8789474 19.6105263,15.9157895 19.7526316,16.0105263 L20.0368421,16.2 L18.2368421,16.9105263 Z M14.8263158,15.9157895 C17.2421053,15.9157895 18.0947368,16.2947368 18.3315789,16.4842105 L19.2315789,16.1052632 C18.4736842,15.5842105 16.2,14.1157895 14.5421053,13.6421053 C12.4578947,13.1210526 11.2263158,12.2210526 10.5631579,9.28421053 C10.0421053,6.86842105 11.3210526,4.73684211 11.7473684,4.12105263 C10.5631579,3.6 4.92631579,1.18421053 2.36842105,0.757894737 C1.84736842,0.663157895 1.46842105,0.805263158 1.13684211,1.13684211 C-0.0947368421,2.46315789 0.331578947,6.77368421 1.18421053,10.3736842 L1.18421053,10.4684211 C2.27368421,15.0631579 2.79473684,17.1947368 9.94736842,16.2947368 C12.0315789,16.0105263 13.5947368,15.9157895 14.8263158,15.9157895 Z" id="形状" stroke="#000000" stroke-width="0.947368421" fill="#000000" stroke-linejoin="round"></path>
                    </g>
                    <g transform="translate(13.736842, 0.000000)">
                        <path d="M20.7,15.5368421 C20.7,15.5368421 21.1263158,7.24736842 17.3842105,2.7 C13.6421053,-1.84736842 10.8947368,1.37368421 8.81052632,2.7 C6.72631579,4.02631579 2.93684211,2.22631579 1.04210526,2.65263158 C1.04210526,2.65263158 10.5157895,5.16315789 13.0263158,10.2789474 C15.5842105,15.3947368 16.1052632,16.8157895 16.1052632,16.8157895 L20.7,15.5368421 Z" id="路径" fill="#FFB000"></path>
                        <path d="M16.0105263,17.0052632 L15.9631579,16.8631579 C15.9631579,16.8631579 15.3947368,15.3947368 12.9315789,10.3736842 C10.4210526,5.4 1.13684211,2.88947368 1.04210526,2.84210526 L0.331578947,2.65263158 L1.04210526,2.46315789 C1.84736842,2.27368421 2.93684211,2.46315789 4.12105263,2.65263158 C5.73157895,2.93684211 7.57894737,3.26842105 8.76315789,2.51052632 C9.04736842,2.32105263 9.33157895,2.13157895 9.66315789,1.89473684 C11.6052632,0.473684211 14.2105263,-1.46842105 17.5736842,2.55789474 C21.3157895,7.10526316 20.9368421,15.4421053 20.9368421,15.5368421 L20.9368421,15.6789474 L16.0105263,17.0052632 Z M2.13157895,2.79473684 C4.68947368,3.6 11.1315789,6.06315789 13.2157895,10.2315789 C15.3,14.4473684 16.0105263,16.1052632 16.2,16.5789474 L20.5105263,15.3947368 C20.5578947,14.3052632 20.6526316,6.91578947 17.2421053,2.79473684 C14.1157895,-0.947368421 11.7473684,0.757894737 9.85263158,2.17894737 C9.52105263,2.41578947 9.23684211,2.65263158 8.95263158,2.84210526 C7.67368421,3.64736842 5.73157895,3.31578947 4.07368421,3.03157895 C3.36315789,2.93684211 2.7,2.84210526 2.13157895,2.79473684 Z" id="形状" stroke="#000000" stroke-width="0.947368421" fill="#000000" stroke-linejoin="round"></path>
                    </g>
                    <g transform="translate(9.947368, 2.368421)">
                        <g>
                            <path d="M8.14736842,16.9105263 C4.59473684,17.0052632 2.17894737,10.0894737 2.27368421,4.97368421 C2.41578947,-0.142105263 8.52631579,3.74210526 12.6473684,5.58947368 C16.7684211,7.43684211 18.9,14.5894737 18.9,14.5894737 C18.9,14.5894737 19.1368421,14.9684211 19.3736842,15.4421053 L19.7052632,13.5473684 C19.7052632,13.5473684 18.7105263,6.96315789 14.6842105,4.68947368 C10.6578947,2.41578947 5.77894737,-1.70526316 2.03684211,1.23157895 C-1.70526316,4.16842105 1.89473684,16.8631579 6.34736842,18.1894737 C10.8,19.5157895 15.7263158,16.8157895 18.9947368,17.8578947 L19.1842105,16.6736842 C17.1947368,16.1052632 11.3210526,16.8157895 8.14736842,16.9105263 Z" id="路径" fill="#FFBE3B"></path>
                            <path d="M9.09473684,18.7105263 C8.14736842,18.7105263 7.2,18.6157895 6.25263158,18.3315789 C3.55263158,17.5263158 1.32631579,12.9789474 0.568421053,8.85789474 C-0.142105263,5.16315789 0.378947368,2.27368421 1.89473684,1.08947368 C5.06842105,-1.37368421 9,1.04210526 12.4578947,3.17368421 C13.2631579,3.64736842 14.0210526,4.12105263 14.7315789,4.54736842 C18.8052632,6.77368421 19.8,13.2631579 19.8473684,13.5 L19.8473684,13.5473684 L19.4210526,16.0105263 L19.1842105,15.5368421 C18.9473684,15.0631579 18.7105263,14.6842105 18.7105263,14.6842105 L18.7105263,14.6368421 C18.7105263,14.5894737 16.5315789,7.57894737 12.5526316,5.77894737 C11.9368421,5.49473684 11.2736842,5.21052632 10.6105263,4.87894737 C7.86315789,3.55263158 4.78421053,2.03684211 3.31578947,2.93684211 C2.74736842,3.26842105 2.46315789,3.97894737 2.41578947,5.02105263 C2.36842105,9.04736842 3.83684211,13.6421053 5.82631579,15.6315789 C6.58421053,16.3894737 7.34210526,16.7210526 8.14736842,16.7210526 L8.14736842,16.9105263 L8.14736842,16.7210526 C9.14210526,16.6736842 10.4210526,16.6263158 11.7473684,16.5315789 C14.7315789,16.3421053 17.8578947,16.1052632 19.2315789,16.4842105 L19.3736842,16.5315789 L19.0894737,18.0947368 L18.9,18 C17.4315789,17.5263158 15.5368421,17.8578947 13.5473684,18.1894737 C12.1736842,18.4263158 10.6578947,18.7105263 9.09473684,18.7105263 Z M4.97368421,0.378947368 C3.97894737,0.378947368 3.03157895,0.663157895 2.13157895,1.37368421 C0.710526316,2.46315789 0.236842105,5.25789474 0.947368421,8.81052632 C1.70526316,12.6947368 3.83684211,17.2421053 6.39473684,18 C8.71578947,18.7105263 11.1315789,18.2842105 13.5,17.8578947 C15.4421053,17.5263158 17.2894737,17.1947368 18.8052632,17.6210526 L18.9473684,16.8157895 C17.5263158,16.4842105 14.4473684,16.7210526 11.7473684,16.9105263 C10.4210526,17.0052632 9.14210526,17.1 8.14736842,17.1 C7.24736842,17.1 6.34736842,16.7210526 5.54210526,15.9157895 C3.45789474,13.8315789 1.98947368,9.14210526 2.08421053,5.02105263 C2.13157895,3.83684211 2.46315789,3.03157895 3.12631579,2.60526316 C4.73684211,1.61052632 7.81578947,3.07894737 10.7526316,4.54736842 C11.4157895,4.87894737 12.0789474,5.21052632 12.6947368,5.44736842 C16.7684211,7.29473684 18.9,14.0210526 19.0421053,14.5421053 C19.0894737,14.5894737 19.1368421,14.7315789 19.2315789,14.8736842 L19.4684211,13.5473684 C19.3736842,13.0736842 18.3315789,6.96315789 14.5421053,4.87894737 C13.7842105,4.45263158 13.0263158,3.97894737 12.2684211,3.50526316 C9.85263158,1.94210526 7.29473684,0.378947368 4.97368421,0.378947368 Z" id="形状" stroke="#000000" stroke-width="0.947368421" fill="#000000" stroke-linejoin="round"></path>
                        </g>
                        <g transform="translate(18.947368, 14.684211)">
                            <path d="M0.426315789,0.710526316 L0.236842105,1.94210526 C0.473684211,1.98947368 0.663157895,2.08421053 0.757894737,2.17894737 C1.51578947,2.88947368 0.9,1.65789474 0.426315789,0.710526316 Z" id="路径" fill="#FFBE3B"></path>
                            <path d="M1.04210526,2.60526316 C0.9,2.60526316 0.710526316,2.46315789 0.615789474,2.36842105 C0.521052632,2.27368421 0.378947368,2.22631579 0.142105263,2.17894737 L0,2.08421053 L0.331578947,0.142105263 L0.568421053,0.615789474 C1.37368421,2.17894737 1.32631579,2.36842105 1.13684211,2.51052632 C1.13684211,2.55789474 1.08947368,2.60526316 1.04210526,2.60526316 Z M0.426315789,1.84736842 C0.615789474,1.89473684 0.757894737,1.98947368 0.852631579,2.03684211 C0.805263158,1.89473684 0.710526316,1.65789474 0.521052632,1.32631579 L0.426315789,1.84736842 Z" id="形状" stroke="#000000" stroke-width="0.947368421" fill="#000000" stroke-linejoin="round"></path>
                        </g>
                    </g>
                    <g transform="translate(27.947368, 15.157895)">
                        <path d="M7.34210526,0.568421053 C7.34210526,0.568421053 6.91578947,0.189473684 5.49473684,0.568421053 C4.07368421,0.947368421 2.55789474,0.378947368 1.70526316,0.757894737 C0.9,1.13684211 0.0947368421,3.78947368 0.473684211,5.06842105 C0.852631579,6.34736842 4.02631579,8.1 5.87368421,7.81578947 C7.72105263,7.53157895 7.05789474,5.77894737 8.43157895,5.58947368 C9.85263158,5.4 9.66315789,1.37368421 9,0.9 C8.33684211,0.426315789 7.34210526,0.568421053 7.34210526,0.568421053 Z" id="路径" fill="#FFB000"></path>
                        <path d="M5.49473684,8.00526316 C3.6,8.00526316 0.710526316,6.44210526 0.284210526,5.06842105 C-0.0947368421,3.69473684 0.710526316,0.947368421 1.61052632,0.521052632 C2.03684211,0.331578947 2.65263158,0.378947368 3.31578947,0.426315789 C3.97894737,0.473684211 4.68947368,0.521052632 5.4,0.331578947 C6.58421053,0.0473684211 7.15263158,0.236842105 7.34210526,0.331578947 C7.57894737,0.331578947 8.47894737,0.284210526 9.09473684,0.710526316 C9.66315789,1.08947368 9.80526316,3.03157895 9.52105263,4.31052632 C9.33157895,5.16315789 8.95263158,5.63684211 8.43157895,5.73157895 C7.86315789,5.82631579 7.72105263,6.15789474 7.48421053,6.58421053 C7.24736842,7.10526316 6.91578947,7.76842105 5.82631579,7.95789474 C5.77894737,8.00526316 5.63684211,8.00526316 5.49473684,8.00526316 Z M2.55789474,0.805263158 C2.27368421,0.805263158 1.98947368,0.852631579 1.8,0.947368421 C1.13684211,1.27894737 0.331578947,3.78947368 0.663157895,5.02105263 C0.994736842,6.20526316 4.07368421,7.91052632 5.87368421,7.62631579 C6.77368421,7.48421053 7.01052632,7.01052632 7.24736842,6.48947368 C7.48421053,6.01578947 7.72105263,5.49473684 8.47894737,5.4 C8.95263158,5.35263158 9.18947368,4.64210526 9.28421053,4.26315789 C9.56842105,2.98421053 9.33157895,1.27894737 9,1.04210526 C8.38421053,0.663157895 7.43684211,0.710526316 7.38947368,0.710526316 L7.29473684,0.710526316 L7.24736842,0.663157895 C7.24736842,0.663157895 6.77368421,0.378947368 5.54210526,0.710526316 C4.78421053,0.9 4.02631579,0.852631579 3.36315789,0.805263158 C3.07894737,0.805263158 2.79473684,0.805263158 2.55789474,0.805263158 Z" id="形状" stroke="#000000" stroke-width="0.947368421" fill="#000000" stroke-linejoin="round"></path>
                    </g>
                    <g transform="translate(35.052632, 16.578947)">
                        <path d="M0.473684211,0.852631579 C0.473684211,0.852631579 3.41052632,-0.0947368421 6.3,1.23157895 C9.18947368,2.51052632 13.9263158,1.23157895 15.7263158,1.8 C17.5736842,2.36842105 29.7947368,4.97368421 31.1210526,13.5 C31.1210526,13.5 28.4684211,11.6052632 24.2052632,11.9842105 C24.2052632,11.9842105 22.5473684,19.1368421 19.4210526,20.7 C19.4210526,20.7 19.4210526,8.38421053 13.3578947,6.67894737 C7.29473684,4.97368421 0.568421053,3.50526316 0.568421053,3.50526316 L0.473684211,0.852631579 Z" id="路径" fill="#FFB000"></path>
                        <path d="M19.2315789,20.9842105 L19.2315789,20.7 C19.2315789,20.5578947 19.1842105,8.47894737 13.3105263,6.86842105 C7.29473684,5.21052632 0.615789474,3.69473684 0.568421053,3.69473684 L0.426315789,3.64736842 L0.284210526,0.710526316 L0.426315789,0.663157895 C0.568421053,0.615789474 3.45789474,-0.284210526 6.39473684,1.04210526 C8.05263158,1.8 10.3736842,1.65789474 12.3631579,1.51578947 C13.7842105,1.42105263 15.0157895,1.37368421 15.7736842,1.61052632 C15.9157895,1.65789474 16.1526316,1.70526316 16.4842105,1.8 C19.8473684,2.74736842 30.0789474,5.54210526 31.3105263,13.4526316 L31.3578947,13.8789474 L30.9789474,13.6421053 C30.9315789,13.6421053 28.3736842,11.8421053 24.3473684,12.1263158 C24.1105263,13.1210526 22.4526316,19.3736842 19.4684211,20.8421053 L19.2315789,20.9842105 Z M0.757894737,3.36315789 C1.75263158,3.6 7.86315789,4.97368421 13.4052632,6.48947368 C19.0894737,8.05263158 19.5631579,18.3789474 19.6105263,20.3684211 C22.4526316,18.5684211 24.0157895,11.9842105 24.0631579,11.8894737 L24.1105263,11.7473684 L24.2526316,11.7473684 C27.6631579,11.4631579 30.0315789,12.6 30.9315789,13.0736842 C29.4631579,5.73157895 19.7052632,3.03157895 16.4368421,2.13157895 C16.1052632,2.03684211 15.8684211,1.98947368 15.7263158,1.94210526 C15.0157895,1.70526316 13.8315789,1.8 12.4105263,1.89473684 C10.3263158,2.03684211 8.00526316,2.17894737 6.25263158,1.37368421 C3.83684211,0.284210526 1.32631579,0.852631579 0.710526316,0.994736842 L0.757894737,3.36315789 Z" id="形状" stroke="#000000" stroke-width="0.947368421" fill="#000000" stroke-linejoin="round"></path>
                    </g>
                    <g transform="translate(32.684211, 17.052632)">
                        <path d="M3.97894737,0.378947368 C3.97894737,0.378947368 1.23157895,1.08947368 0.757894737,2.22631579 C0.331578947,3.36315789 -0.0947368421,5.30526316 0.994736842,5.02105263 C2.08421053,4.73684211 2.03684211,3.07894737 2.93684211,3.03157895 C3.88421053,2.93684211 4.40526316,1.32631579 3.97894737,0.378947368 Z" id="路径" fill="#CC8200"></path>
                        <path d="M0.805263158,5.25789474 C0.568421053,5.25789474 0.426315789,5.16315789 0.331578947,5.06842105 C-0.142105263,4.5 0.284210526,2.93684211 0.615789474,2.17894737 C1.08947368,0.994736842 3.83684211,0.236842105 3.93157895,0.236842105 L4.07368421,0.189473684 L4.12105263,0.331578947 C4.40526316,0.947368421 4.31052632,1.84736842 3.93157895,2.51052632 C3.69473684,2.93684211 3.31578947,3.22105263 2.93684211,3.22105263 C2.60526316,3.26842105 2.41578947,3.6 2.17894737,4.02631579 C1.94210526,4.5 1.65789474,5.06842105 1.04210526,5.21052632 C0.947368421,5.21052632 0.9,5.25789474 0.805263158,5.25789474 Z M3.88421053,0.615789474 C3.03157895,0.852631579 1.27894737,1.51578947 0.947368421,2.32105263 C0.568421053,3.26842105 0.331578947,4.5 0.615789474,4.83157895 C0.663157895,4.87894737 0.710526316,4.92631579 0.947368421,4.87894737 C1.42105263,4.73684211 1.65789474,4.31052632 1.84736842,3.88421053 C2.08421053,3.41052632 2.32105263,2.93684211 2.88947368,2.88947368 C3.17368421,2.88947368 3.41052632,2.65263158 3.6,2.36842105 C3.93157895,1.8 4.02631579,1.08947368 3.88421053,0.615789474 Z" id="形状" stroke="#000000" stroke-width="0.947368421" fill="#000000" stroke-linejoin="round"></path>
                    </g>
                    <g transform="translate(33.157895, 17.526316)">
                        <path d="M17.9052632,4.26315789 C17.1,5.02105263 15.3947368,3.97894737 13.7368421,2.65263158 C12.0789474,1.32631579 9.71052632,3.41052632 7.38947368,3.6 C5.11578947,3.78947368 3.31578947,1.23157895 3.31578947,1.23157895 C3.31578947,1.23157895 2.88947368,0.236842105 2.32105263,0.331578947 C1.75263158,0.378947368 0.757894737,1.13684211 0.663157895,1.51578947 C0.663157895,1.51578947 0.994736842,1.51578947 1.37368421,1.56315789 C1.94210526,1.61052632 2.41578947,1.94210526 2.65263158,2.46315789 C3.6,4.35789474 6.39473684,9.47368421 10.1842105,11.0842105 C14.9210526,13.1210526 18.6631579,3.55263158 17.9052632,4.26315789 Z" id="路径" fill="#E89B00"></path>
                        <path d="M11.5105263,11.5578947 C11.0842105,11.5578947 10.6105263,11.4631579 10.1368421,11.2736842 C6.3,9.66315789 3.50526316,4.64210526 2.51052632,2.55789474 C2.27368421,2.13157895 1.84736842,1.8 1.37368421,1.75263158 C0.994736842,1.70526316 0.663157895,1.70526316 0.663157895,1.70526316 L0.426315789,1.70526316 L0.473684211,1.46842105 C0.615789474,0.994736842 1.65789474,0.189473684 2.27368421,0.142105263 C2.93684211,0.0473684211 3.41052632,1.04210526 3.45789474,1.18421053 L3.45789474,1.18421053 C3.45789474,1.18421053 5.16315789,3.6 7.34210526,3.45789474 C8.14736842,3.41052632 9,3.07894737 9.85263158,2.74736842 C11.3210526,2.17894737 12.6947368,1.65789474 13.8315789,2.55789474 C15.8684211,4.16842105 17.1947368,4.73684211 17.7631579,4.16842105 C17.9052632,4.02631579 18.0473684,4.07368421 18.0947368,4.12105263 C18.4736842,4.40526316 17.1947368,6.77368421 16.8631579,7.34210526 C16.0578947,8.71578947 14.0210526,11.5578947 11.5105263,11.5578947 Z M0.947368421,1.37368421 C1.08947368,1.37368421 1.23157895,1.37368421 1.37368421,1.42105263 C1.98947368,1.46842105 2.51052632,1.84736842 2.79473684,2.41578947 C3.78947368,4.45263158 6.53684211,9.37894737 10.2315789,10.9421053 C11.3684211,11.4157895 12.5526316,11.2263158 13.7842105,10.3736842 C15.9631579,8.81052632 17.3842105,5.63684211 17.7157895,4.64210526 C16.6736842,5.16315789 14.8736842,3.88421053 13.5947368,2.84210526 C12.6473684,2.08421053 11.3684211,2.55789474 9.99473684,3.07894737 C9.14210526,3.41052632 8.28947368,3.74210526 7.38947368,3.78947368 C5.02105263,3.97894737 3.22105263,1.46842105 3.12631579,1.32631579 C2.98421053,1.08947368 2.65263158,0.473684211 2.27368421,0.473684211 C1.89473684,0.568421053 1.23157895,0.994736842 0.947368421,1.37368421 Z" id="形状" stroke="#000000" stroke-width="0.947368421" fill="#000000" stroke-linejoin="round"></path>
                    </g>
                    <g transform="translate(34.578947, 7.105263)">
                        <path d="M2.08421053,10.3263158 C2.08421053,10.3263158 8.05263158,3.17368421 13.7842105,4.02631579 C13.7842105,4.02631579 12.4578947,-0.426315789 9.37894737,0.331578947 C6.34736842,1.08947368 0.426315789,10.7052632 0.426315789,10.7052632 L2.08421053,10.3263158 Z" id="路径" fill="#E89B00"></path>
                        <path d="M0.0947368421,10.9421053 L0.331578947,10.5631579 C0.568421053,10.1842105 6.3,0.852631579 9.37894737,0.142105263 C12.5526316,-0.615789474 13.9736842,3.93157895 13.9736842,3.97894737 L14.0684211,4.26315789 L13.7842105,4.21578947 C8.19473684,3.36315789 2.27368421,10.3736842 2.22631579,10.4210526 L2.17894737,10.4684211 L0.0947368421,10.9421053 Z M10.0894737,0.426315789 C9.9,0.426315789 9.66315789,0.473684211 9.47368421,0.521052632 C6.86842105,1.13684211 1.98947368,8.66842105 0.852631579,10.4210526 L1.98947368,10.1842105 C2.55789474,9.47368421 8.05263158,3.22105263 13.5473684,3.78947368 C13.2157895,2.93684211 12.1263158,0.426315789 10.0894737,0.426315789 Z" id="形状" stroke="#000000" stroke-width="0.947368421" fill="#000000" stroke-linejoin="round"></path>
                    </g>
                    <g transform="translate(32.684211, 5.684211)">
                        <path d="M11.6052632,0.521052632 C6.86842105,1.13684211 1.8,12.6 1.8,12.6 L2.46315789,12.2684211 C2.46315789,12.2684211 8.76315789,3.22105263 10.8,2.7 C12.8368421,2.17894737 13.9736842,3.26842105 15.0157895,10.4684211 C16.0578947,17.6684211 14.3052632,22.1210526 11.9368421,22.6421053 C9.9,23.1157895 4.68947368,16.1526316 3.22105263,14.1157895 C2.93684211,13.7368421 2.55789474,13.4526316 2.08421053,13.4052632 C1.75263158,13.3578947 1.37368421,13.3105263 1.18421053,13.3578947 C0.805263158,13.5 0.663157895,14.8263158 0.663157895,14.8263158 C0.9,14.4947368 1.23157895,14.3526316 1.51578947,14.3526316 C1.94210526,14.3526316 2.32105263,14.5421053 2.60526316,14.8736842 L7.86315789,21.5526316 C10.3736842,24.7736842 15.8684211,24.8684211 16.8631579,17.6210526 C17.7631579,10.3736842 16.2947368,-0.0947368421 11.6052632,0.521052632 Z" id="路径" fill="#FFB000"></path>
                        <path d="M11.7947368,23.8736842 C10.2789474,23.8736842 8.71578947,23.0684211 7.62631579,21.6947368 L2.36842105,15.0157895 C2.13157895,14.7315789 1.75263158,14.5421053 1.42105263,14.5421053 C1.13684211,14.5421053 0.9,14.6842105 0.710526316,14.9684211 L0.284210526,15.5368421 L0.378947368,14.8263158 C0.426315789,14.4947368 0.568421053,13.4052632 1.04210526,13.2157895 C1.23157895,13.1210526 1.56315789,13.1684211 2.03684211,13.2631579 C2.55789474,13.3578947 2.98421053,13.6421053 3.31578947,14.0684211 C6.44210526,18.3789474 10.3263158,22.8789474 11.8421053,22.5473684 C14.1157895,22.0263158 15.8210526,17.7631579 14.7789474,10.5631579 C14.1157895,5.96842105 13.4052632,3.74210526 12.4105263,3.07894737 C11.9842105,2.79473684 11.5105263,2.74736842 10.8,2.93684211 C9.23684211,3.36315789 4.73684211,9.33157895 2.55789474,12.4578947 L2.51052632,12.5052632 L1.37368421,13.0736842 L1.56315789,12.6 C1.75263158,12.1263158 6.77368421,1.04210526 11.5105263,0.378947368 L11.5105263,0.378947368 C12.5052632,0.236842105 13.4052632,0.568421053 14.2105263,1.37368421 C16.9105263,4.07368421 17.7157895,11.7947368 16.9105263,17.6684211 C16.2947368,22.1684211 14.1157895,23.4 12.8842105,23.7315789 C12.5526316,23.8263158 12.1736842,23.8736842 11.7947368,23.8736842 Z M1.46842105,14.1631579 C1.89473684,14.1631579 2.36842105,14.4 2.65263158,14.7789474 L7.91052632,21.4578947 C9.14210526,23.0684211 11.1315789,23.8263158 12.8368421,23.3526316 C14.8263158,22.8315789 16.2,20.7473684 16.6263158,17.5736842 C17.4315789,11.7947368 16.6736842,4.21578947 14.0684211,1.56315789 C13.3578947,0.852631579 12.5526316,0.568421053 11.6526316,0.663157895 L11.6526316,0.663157895 C7.62631579,1.18421053 3.22105263,9.99473684 2.22631579,12.1736842 L2.36842105,12.1263158 C2.88947368,11.4157895 8.71578947,3.03157895 10.8,2.51052632 C11.6052632,2.32105263 12.1736842,2.36842105 12.6947368,2.7 C13.8315789,3.45789474 14.5421053,5.68421053 15.2526316,10.4210526 C16.3894737,18.1894737 14.3526316,22.2631579 12.0315789,22.7842105 C9.9,23.2578947 5.11578947,16.9105263 3.12631579,14.1631579 C2.88947368,13.8315789 2.51052632,13.5947368 2.08421053,13.5 C1.51578947,13.4052632 1.32631579,13.4526316 1.27894737,13.4526316 C1.13684211,13.5 1.04210526,13.8315789 0.947368421,14.2578947 C1.13684211,14.1631579 1.32631579,14.1157895 1.51578947,14.0684211 C1.42105263,14.1631579 1.46842105,14.1631579 1.46842105,14.1631579 Z" id="形状" stroke="#000000" stroke-width="0.947368421" fill="#000000" stroke-linejoin="round"></path>
                    </g>
                    <g transform="translate(42.157895, 3.789474)">
                        <path d="M16.9105263,1.18421053 C16.9105263,1.18421053 15.9157895,-0.142105263 13.2631579,0.473684211 C12.5052632,0.663157895 11.7473684,0.947368421 11.0842105,1.27894737 C9.28421053,2.13157895 7.29473684,2.51052632 5.35263158,2.27368421 C4.5,2.17894737 3.55263158,2.17894737 2.74736842,2.41578947 C2.74736842,2.41578947 7.91052632,2.84210526 7.62631579,15.6789474 C7.34210526,28.5157895 0.568421053,25.2 0.568421053,25.2 C0.568421053,25.2 5.02105263,27.2842105 8.47894737,22.8789474 C11.9368421,18.4736842 14.9684211,19.6105263 16.3894737,19.1842105 C17.8105263,18.7578947 20.1789474,17.5263158 20.5105263,12.5052632 C20.8421053,7.48421053 18.4263158,2.27368421 16.9105263,1.18421053 Z" id="路径" fill="#FFB000"></path>
                        <path d="M3.03157895,25.8631579 C2.32105263,25.8631579 1.75263158,25.7684211 1.27894737,25.6263158 C0.757894737,25.5315789 0.473684211,25.3421053 0.426315789,25.3421053 L0.568421053,25.0105263 C0.568421053,25.0105263 0.615789474,25.0105263 0.615789474,25.0578947 C0.947368421,25.2 2.65263158,25.8157895 4.21578947,24.8684211 C6.15789474,23.6842105 7.24736842,20.5105263 7.34210526,15.6789474 C7.62631579,3.17368421 2.7,2.60526316 2.65263158,2.60526316 L1.65789474,2.51052632 L2.60526316,2.22631579 C3.31578947,2.03684211 4.21578947,1.98947368 5.25789474,2.08421053 C7.15263158,2.32105263 9.09473684,1.98947368 10.8947368,1.13684211 C11.6526316,0.757894737 12.4105263,0.473684211 13.1210526,0.331578947 C15.6789474,-0.284210526 16.7684211,0.9 16.9578947,1.08947368 C18.6631579,2.32105263 20.8894737,7.62631579 20.5578947,12.5526316 C20.3210526,16.2947368 18.9,18.6157895 16.2947368,19.3736842 C15.9631579,19.4684211 15.5368421,19.5157895 15.0631579,19.5157895 C13.5,19.5631579 11.0842105,19.6578947 8.47894737,23.0210526 C6.77368421,25.2947368 4.64210526,25.8631579 3.03157895,25.8631579 Z M3.50526316,2.46315789 C4.97368421,3.12631579 8.00526316,5.68421053 7.76842105,15.6789474 C7.62631579,20.7 6.53684211,23.9210526 4.45263158,25.2 C4.26315789,25.2947368 4.07368421,25.3894737 3.88421053,25.4842105 C5.25789474,25.2947368 6.82105263,24.6315789 8.24210526,22.7842105 C10.9421053,19.3263158 13.4526316,19.2315789 15.1105263,19.1368421 C15.5842105,19.1368421 15.9631579,19.0894737 16.2473684,18.9947368 C18.6631579,18.2842105 19.9894737,16.1052632 20.2263158,12.5052632 C20.5578947,7.38947368 18.1421053,2.32105263 16.7210526,1.32631579 L16.6736842,1.27894737 C16.6263158,1.23157895 15.6789474,0.0473684211 13.2157895,0.663157895 C12.5526316,0.852631579 11.7947368,1.08947368 11.0368421,1.46842105 C9.18947368,2.36842105 7.2,2.7 5.21052632,2.46315789 C4.64210526,2.36842105 4.02631579,2.36842105 3.50526316,2.46315789 Z" id="形状" stroke="#000000" stroke-width="0.947368421" fill="#000000" stroke-linejoin="round"></path>
                    </g>
                    <g transform="translate(10.421053, 19.894737)">
                        <path d="M18.0473684,0.284210526 C18.0473684,0.284210526 5.02105263,2.51052632 2.08421053,10.2315789 C-0.852631579,17.9526316 1.42105263,23.0684211 1.42105263,23.0684211 C1.42105263,23.0684211 4.45263158,18.6631579 8.62105263,17.3842105 C8.62105263,17.3842105 11.3210526,23.7789474 16.7210526,25.5315789 C16.7210526,25.5315789 10.3736842,7.38947368 21.9315789,2.88947368 L18.0473684,0.284210526 Z" id="路径" fill="#FFB000"></path>
                        <path d="M17.0526316,25.8157895 L16.7210526,25.7210526 C11.7473684,24.1105263 9.04736842,18.6157895 8.57368421,17.6210526 C4.59473684,18.9 1.65789474,23.1631579 1.61052632,23.2105263 L1.42105263,23.4947368 L1.27894737,23.2105263 C1.27894737,23.1631579 -0.994736842,17.9526316 1.94210526,10.2315789 C4.87894737,2.51052632 17.9052632,0.189473684 18.0473684,0.189473684 L18.1421053,0.189473684 L22.4526316,3.03157895 L22.1210526,3.17368421 C10.8473684,7.53157895 16.9578947,25.3894737 17.0052632,25.5789474 L17.0526316,25.8157895 Z M8.76315789,17.1473684 L8.81052632,17.2894737 C8.85789474,17.3368421 11.4157895,23.3526316 16.4368421,25.2 C15.6315789,22.6894737 11.2736842,7.2 21.5526316,2.84210526 L17.9526316,0.473684211 C16.9105263,0.663157895 4.97368421,3.07894737 2.22631579,10.2789474 C-0.236842105,16.7684211 1.04210526,21.4105263 1.46842105,22.6421053 C2.22631579,21.6473684 4.92631579,18.2842105 8.57368421,17.1473684 L8.76315789,17.1473684 Z" id="形状" stroke="#000000" stroke-width="0.947368421" fill="#000000" stroke-linejoin="round"></path>
                    </g>
                </g>
                <path d="M21.2210526,3.83684211 C21.2210526,3.83684211 22.7842105,3.74210526 24.4894737,2.55789474 C26.1947368,1.37368421 28.1368421,0.805263158 29.5578947,2.32105263 C30.9789474,3.83684211 33.1578947,7.95789474 33.5842105,12.6947368 C33.5842105,12.6947368 31.2631579,2.84210526 27.6631579,3.17368421 C24.0631579,3.50526316 24.3,5.06842105 21.2210526,3.83684211 Z" id="路径" fill="#FFD400"></path>
                <path d="M48.4105263,7.05789474 C48.4105263,7.05789474 50.6368421,7.38947368 53.7631579,5.92105263 C56.8894737,4.45263158 58.8315789,5.82631579 59.6842105,7.34210526 C60.5368421,8.85789474 62.4315789,13.9263158 60.6789474,18.8526316 C60.6789474,18.8526316 61.2947368,8.85789474 57.0315789,7.62631579 C52.7684211,6.34736842 50.8736842,9.28421053 48.4105263,7.05789474 Z" id="路径" fill="#FFD400"></path>
                <path d="M50.8263158,17.4315789 C50.8263158,17.4315789 51.0157895,24.4894737 48.6473684,27.1894737 C46.2789474,29.8894737 52.3894737,23.0684211 54.1421053,22.8789474 C55.8947368,22.6894737 58.2157895,22.9263158 59.0684211,22.1210526 C59.0684211,22.1210526 55.5157895,22.5 54.1421053,21.5526316 C52.7684211,20.6052632 50.8263158,17.4315789 50.8263158,17.4315789 Z" id="路径" fill="#FFD400"></path>
                <path d="M22.0263158,8.33684211 C22.0263158,8.33684211 15.0631579,4.87894737 13.6894737,5.73157895 C12.3157895,6.58421053 13.6421053,12.4578947 13.9263158,13.2157895 C13.9736842,13.2157895 11.4631579,2.79473684 22.0263158,8.33684211 Z" id="路径" fill="#C48300"></path>
                <path d="M21.1263158,12.8842105 C21.1263158,12.8842105 21.7421053,15.8684211 23.5421053,16.5315789 C25.3421053,17.1947368 27.1894737,17.4789474 27.7578947,18.1894737 C27.7578947,18.1894737 25.4842105,17.2421053 23.0210526,17.4315789 C20.5578947,17.6210526 21.1263158,12.8842105 21.1263158,12.8842105 Z" id="路径" fill="#C48300"></path>
                <polygon id="路径" fill="#FF9797" points="28.6105263 29.3684211 39.0789474 33.2052632 49.0263158 29.7 39.6947368 31.3105263"></polygon>
                <path d="M28.6105263,41.9684211 L36.6631579,44.4789474 C36.6631579,44.4789474 36.5210526,58.5 36.0473684,59.2578947 L34.5789474,46.1842105 L28.6105263,41.9684211 Z" id="路径" fill="#FF5F5F"></path>
                <path d="M61.3894737,35.3368421 L67.4526316,32.6368421 C67.4526316,32.6368421 65.5578947,41.7789474 65.7,44.5263158 C65.7,44.5263158 64.8947368,40.3105263 65.3684211,36.0947368 L61.3894737,35.3368421 Z" id="路径" fill="#A01C1C"></path>
                <polygon id="路径" fill="#A01C1C" points="44.5736842 42.2052632 38.4631579 44.6684211 38.3210526 52.0578947 39.6947368 45.4263158"></polygon>
                <path d="M65.1789474,50.0210526 C65.1789474,50.0210526 65.2736842,54.4736842 65.4631579,55.5157895 C65.6526316,56.5578947 62.1,57.5052632 60.5368421,58.5 C60.5368421,58.4526316 65.4631579,55.5631579 65.1789474,50.0210526 Z" id="路径" fill="#A01C1C"></path>
                <polygon id="路径" fill="#EA3939" points="64.3736842 19.6578947 69.2052632 21.5052632 63.7578947 23.5894737 66.9789474 21.4105263"></polygon>
            </g>
        </g>
    </g>
</svg>
