<?xml version="1.0" encoding="UTF-8"?>
<svg width="32px" height="32px" viewBox="0 0 32 32" version="1.1" xmlns="http://www.w3.org/2000/svg" xmlns:xlink="http://www.w3.org/1999/xlink">
    <defs>
        <filter id="filter-1">
            <feColorMatrix in="SourceGraphic" type="matrix" values="0 0 0 0 0.639216 0 0 0 0 0.988235 0 0 0 0 1.000000 0 0 0 1.000000 0"></feColorMatrix>
        </filter>
    </defs>
    <g id="终版" stroke="none" stroke-width="1" fill="none" fill-rule="evenodd">
        <g id="helmet_duck" transform="translate(-1362.000000, -8492.000000)">
            <g id="discord-fill" transform="translate(1362.000000, 8492.000000)" filter="url(#filter-1)">
                <g>
                    <polygon id="路径" points="0 0 32 0 32 32 0 32"></polygon>
                    <path d="M13.4346667,14.6666667 C14.2346667,14.6666667 14.8826667,15.2666667 14.868,16 C14.868,16.7333333 14.236,17.3333333 13.4346667,17.3333333 C12.648,17.3333333 12,16.7333333 12,16 C12,15.2666667 12.6333333,14.6666667 13.4346667,14.6666667 Z M18.5653333,14.6666667 C19.3666667,14.6666667 20,15.2666667 20,16 C20,16.7333333 19.3666667,17.3333333 18.5653333,17.3333333 C17.7786667,17.3333333 17.132,16.7333333 17.132,16 C17.132,15.2666667 17.764,14.6666667 18.5653333,14.6666667 Z M25.188,2.66666667 C26.7386667,2.66666667 28,3.95466667 28,5.55066667 L28,30.6666667 L25.052,28.0066667 L23.392,26.4386667 L21.636,24.772 L22.364,27.3626667 L6.812,27.3626667 C5.26133333,27.3626667 4,26.0746667 4,24.4786667 L4,5.55066667 C4,3.95466667 5.26133333,2.66666667 6.812,2.66666667 L25.1866667,2.66666667 L25.188,2.66666667 Z M19.8946667,20.9506667 C22.9253333,20.8533333 24.092,18.8226667 24.092,18.8226667 C24.092,14.3146667 22.116,10.66 22.116,10.66 C20.1426667,9.14933333 18.2626667,9.1905554 18.2626667,9.1905554 L18.0706667,9.41466667 C20.4026667,10.1426667 21.4853333,11.1933333 21.4853333,11.1933333 C20.2120908,10.475984 18.8088534,10.019116 17.3573333,9.84933333 C16.4365846,9.74533838 15.5065754,9.7542937 14.588,9.876 C14.5053333,9.876 14.436,9.89066667 14.3546667,9.904 C13.8746667,9.94666667 12.708,10.128 11.2413333,10.7866667 C10.7346667,11.024 10.432,11.1933333 10.432,11.1933333 C10.432,11.1933333 11.5706667,10.0866667 14.0386667,9.35866667 L13.9013333,9.1905554 C13.9013333,9.1905554 12.0226667,9.14933333 10.048,10.6613333 C10.048,10.6613333 8.07333333,14.3146667 8.07333333,18.8226667 C8.07333333,18.8226667 9.22533333,20.852 12.256,20.9506667 C12.256,20.9506667 12.7626667,20.3213333 13.176,19.7893333 C11.4333333,19.256 10.776,18.136 10.776,18.136 C10.776,18.136 10.912,18.2346667 11.1586667,18.3746667 C11.172,18.388 11.1853333,18.4026667 11.2133333,18.416 C11.2546667,18.4453333 11.296,18.4586667 11.3373333,18.4866667 C11.68,18.6826667 12.0226667,18.836 12.3373333,18.9626667 C12.9,19.1866667 13.572,19.4106667 14.3546667,19.5653333 C15.5270922,19.7951468 16.7325489,19.7996717 17.9066667,19.5786667 C18.5905566,19.4566034 19.2577777,19.2547813 19.8946667,18.9773333 C20.3746667,18.7946667 20.9093333,18.528 21.472,18.1506667 C21.472,18.1506667 20.7866667,19.2986667 18.9893333,19.8173333 C19.4013333,20.3493333 19.896,20.9506667 19.896,20.9506667 L19.8946667,20.9506667 Z" id="形状" fill="#000000" fill-rule="nonzero"></path>
                </g>
            </g>
        </g>
    </g>
</svg>
