<?xml version="1.0" encoding="UTF-8"?>
<svg width="32px" height="32px" viewBox="0 0 32 32" version="1.1" xmlns="http://www.w3.org/2000/svg" xmlns:xlink="http://www.w3.org/1999/xlink">
    <defs>
        <filter id="filter-1">
            <feColorMatrix in="SourceGraphic" type="matrix" values="0 0 0 0 0.639216 0 0 0 0 0.988235 0 0 0 0 1.000000 0 0 0 1.000000 0"></feColorMatrix>
        </filter>
    </defs>
    <g id="终版" stroke="none" stroke-width="1" fill="none" fill-rule="evenodd">
        <g id="git" transform="translate(-1238.000000, -8492.000000)" filter="url(#filter-1)">
            <g transform="translate(1238.000000, 8492.000000)" id="Github">
                <rect id="矩形" fill="#D8D8D8" opacity="0" x="0" y="0" width="32" height="32"></rect>
                <path d="M14.9843067,29.3333333 C13.6264114,29.3380154 12.5204679,28.2550741 12.5110322,26.9114845 L12.501237,25.1781535 C7.64042403,26.224207 6.6150864,23.1381558 6.6150864,23.1381558 C5.82004734,21.1405752 4.67466281,20.6096531 4.67466281,20.6096531 C3.08953735,19.5357208 4.79473724,19.5575283 4.79473724,19.5575283 C6.54770275,19.6787357 7.47137333,21.3393477 7.47137333,21.3393477 C9.02956184,23.9817886 11.5592141,23.2181439 12.5551384,22.7769294 C12.711945,21.6593548 13.1651957,20.8969353 13.6650014,20.4642151 C9.78418171,20.0278467 5.70489806,18.5441997 5.70489806,11.9211633 C5.70489806,10.0339 6.38723666,8.49207228 7.50565672,7.28116907 C7.32436195,6.84480069 6.72654871,5.08723909 7.67470742,2.70662468 C7.67470742,2.70662468 9.1422623,2.24237751 12.4804083,4.47872463 C13.9058927,4.09497095 15.3763877,3.89934122 16.8536872,3.89691827 C18.3371456,3.90298953 19.8328756,4.09449285 21.2293874,4.47872463 C24.5650846,2.24240473 26.0301906,2.70662468 26.0301906,2.70662468 C26.9807982,5.08843701 26.3829849,6.84602583 26.2016902,7.28116907 C27.3213484,8.49087436 28,10.0339 28,11.9211905 C28,18.5611883 23.9121317,20.0230006 20.022755,20.4508747 C20.6487433,20.9878408 21.2073481,22.0387405 21.2073481,23.6520893 C21.2073481,25.9660287 21.1987634,26.9102593 21.1987634,26.9102593 C21.1893472,28.2531044 20.0850861,29.3360175 18.7279378,29.3333333 L14.9842792,29.3333333 L14.9843067,29.3333333 Z" id="路径" fill="#162040" fill-rule="nonzero"></path>
            </g>
        </g>
    </g>
</svg>
