<?xml version="1.0" encoding="UTF-8"?>
<svg width="32px" height="32px" viewBox="0 0 32 32" version="1.1" xmlns="http://www.w3.org/2000/svg" xmlns:xlink="http://www.w3.org/1999/xlink">
    <defs>
        <filter id="filter-1">
            <feColorMatrix in="SourceGraphic" type="matrix" values="0 0 0 0 0.639216 0 0 0 0 0.988235 0 0 0 0 1.000000 0 0 0 1.000000 0"></feColorMatrix>
        </filter>
    </defs>
    <g id="终版" stroke="none" stroke-width="1" fill="none" fill-rule="evenodd">
        <g id="medium-fill-(1)" transform="translate(-1300.000000, -8492.000000)" filter="url(#filter-1)">
            <g transform="translate(1300.000000, 8492.000000)">
                <polygon id="路径" points="0 0 32 0 32 32 0 32"></polygon>
                <path d="M5.33333333,4 L26.6666667,4 C27.4030463,4 28,4.59695367 28,5.33333333 L28,26.6666667 C28,27.4030463 27.4030463,28 26.6666667,28 L5.33333333,28 C4.59695367,28 4,27.4030463 4,26.6666667 L4,5.33333333 C4,4.59695367 4.59695367,4 5.33333333,4 Z M23.0666667,21.2533333 C22.9333333,21.1866667 22.8666667,20.9866667 22.8666667,20.852 L22.8666667,10.6746667 C22.8666667,10.5413333 22.9333333,10.3413333 23.0666667,10.2066667 L24.34,8.73333333 L24.34,8.66666667 L19.7866667,8.66666667 L16.3733333,17.304 L12.488,8.66666667 L7.80266667,8.66666667 L7.80266667,8.73333333 L9.00666667,10.408 C9.27466667,10.6746667 9.34133333,11.0773333 9.34133333,11.412 L9.34133333,18.776 C9.408,19.1786667 9.34133333,19.6466667 9.14133333,20.048 L7.33333333,22.5253333 L7.33333333,22.592 L12.1546667,22.592 L12.1546667,22.5253333 L10.3466667,20.116 C10.1466667,19.7133333 10.0786667,19.312 10.1466667,18.844 L10.1466667,12.1466667 C10.2133333,12.28 10.28,12.28 10.3466667,12.548 L14.8986667,22.7253333 L14.9653333,22.7253333 L19.3866667,11.68 C19.32,12.08 19.32,12.5493333 19.32,12.8853333 L19.32,20.7853333 C19.32,20.9853333 19.2533333,21.1186667 19.12,21.2533333 L17.78,22.5253333 L17.78,22.592 L24.3413333,22.592 L24.3413333,22.5253333 L23.0693333,21.2533333 L23.0666667,21.2533333 Z" id="形状" fill="#162040" fill-rule="nonzero"></path>
            </g>
        </g>
    </g>
</svg>
