<?xml version="1.0" encoding="UTF-8"?>
<svg width="32px" height="32px" viewBox="0 0 32 32" version="1.1" xmlns="http://www.w3.org/2000/svg" xmlns:xlink="http://www.w3.org/1999/xlink">
    <defs>
        <filter id="filter-1">
            <feColorMatrix in="SourceGraphic" type="matrix" values="0 0 0 0 0.639216 0 0 0 0 0.988235 0 0 0 0 1.000000 0 0 0 1.000000 0"></feColorMatrix>
        </filter>
    </defs>
    <g id="终版" stroke="none" stroke-width="1" fill="none" fill-rule="evenodd">
        <g id="telegram-fill" transform="translate(-1176.000000, -8492.000000)" filter="url(#filter-1)">
            <g transform="translate(1176.000000, 8492.000000)">
                <polygon id="路径" points="0 0 32 0 32 32 0 32"></polygon>
                <path d="M16,29.3333333 C8.636,29.3333333 2.66666667,23.364 2.66666667,16 C2.66666667,8.636 8.636,2.66666667 16,2.66666667 C23.364,2.66666667 29.3333333,8.636 29.3333333,16 C29.3333333,23.364 23.364,29.3333333 16,29.3333333 Z M11.8533333,17.56 L11.8706667,17.5506667 L13.0306667,21.3773333 C13.18,21.792 13.3853333,21.8666667 13.6346667,21.832 C13.8853333,21.7986667 14.0173333,21.664 14.1813333,21.5066667 L15.7653333,19.976 L19.1653333,22.4933333 C19.7866667,22.836 20.2333333,22.6586667 20.388,21.9173333 L22.5973333,11.488 C22.8413333,10.5173333 22.4146667,10.128 21.6613333,10.4373333 L8.684,15.4506667 C7.79866667,15.8053333 7.804,16.3013333 8.524,16.5213333 L11.8533333,17.5613333 L11.8533333,17.56 Z" id="形状" fill="#162040" fill-rule="nonzero"></path>
            </g>
        </g>
    </g>
</svg>
